<?xml version="1.0" encoding="utf-8"?>
<!-- Generator: Adobe Illustrator 19.2.1, SVG Export Plug-In . SVG Version: 6.00 Build 0)  -->
<svg version="1.1" id="layer" xmlns="http://www.w3.org/2000/svg" xmlns:xlink="http://www.w3.org/1999/xlink" x="0px" y="0px"
	 viewBox="0 0 652 652" style="enable-background:new 0 0 652 652;" xml:space="preserve">
<path d="M105.5,352c-0.1-2-0.3-4.1-0.4-6.2c-0.1-1.6-0.2-3.1-0.2-4.7c-1-16-1.9-28.6-2.9-44.6c-0.9-9.6-1.7-13.5-3.1-15.1
	c-1.3-1.8-3.4-2-8.1-1.7c-1.4,0.1-2.8,0.2-3.8,1c-1.8,1.3-4,8.8-5.2,11.8c-3.8,10.4-7.5,20.8-11.2,31.2c-1.6,4-2.8,8.2-4.5,12.1
	c-0.8,1.8-1.4,4-3.6,4.3c-1.9,0.3-2.7-1.3-3.2-2.5c-0.8-3.6-1.5-7.6-2.3-12c-1.7-10.1-3.4-20.3-5-30.5c-0.6-3.6-1.7-10.4-3.2-11.6
	c-1.2-1.3-6.6-1.9-9.4-1.1c-4.1,1.2-4.2,8.4-5.6,13.6c-2.7,13.3-11.1,54.5-12,58.3c-0.4,1.8-0.1,3.9,1,4.7c1.3,1,3.7,0.8,4.9-0.2
	c1.7-1.3,2.3-5.8,2.9-9c2.2-11.2,4.6-25.8,6.5-36.8c0.9-3.9,1.2-9.3,4.3-9.1c3.2,0.2,3.3,5.7,4.7,12.3c0.2,1.4,3,15.4,4.4,23.1
	c0.9,4.5,1.4,8.4,3,11.6c1.5,2.9,5.4,5.1,9.3,3.4c4.3-1.8,5.6-7.6,7.4-12c4.1-10.7,8.2-21.4,12.3-32c1.4-3.7,2.8-7.4,4.2-11.1
	c0.5-1.2,1.3-3,3.2-3c3.5-0.3,3.9,7,4.5,16.2c0.5,13.7,1,24.1,1.4,37.8c0.3,6.2-0.5,12,5.1,12c0.6,0,1.1,0,1.7-0.2
	C106.1,361.3,105.8,356.8,105.5,352z M251.3,303.9c-1.8,0.3-2.7,1.1-3.3,2.8c-0.7,2.6,1.7,5.4,4.3,5
	C257.1,310.9,257,303.7,251.3,303.9z M230.3,348.4c-0.5,1.2-1.9,1.8-3.3,2c-3,0.5-7.3-1.6-6.1-4.7c0.8-2,3.9-3.2,4.9-3.3
	c0.8-0.2,1.3,0,1.8,0.2C229.2,343.4,231.4,346.1,230.3,348.4z M196.4,351.1c-3,0.9-7.8-0.9-7-4.1c0.6-2.4,3.8-3.8,5.1-3.8
	C198.7,343.3,200.8,349.9,196.4,351.1z M378.8,339.7c2.4-7.8-2.9-13.9-8-15.9c-3.9-1.6-10.5-1.6-14.3-0.1c-0.8,0.3-3.4,1.5-2.8,2.6
	c0.3,0.6,1.5,0.4,2.2,0.3c1.9-0.4,4.6-1,7-0.6c5.6,1,10.7,5,8.5,12.2c-0.3,1.1-0.9,2.1-1.4,3c-2.3,3.5-9.5,7.6-15.9,5.7
	c-3.9-1.1-6.9-3.6-8-7.5c-0.9-2.8-0.8-7.5-0.3-10.8c0.4-2-0.2-3.4-1.7-3.1c-2,0.5-3,6.2-3.8,8.2c-2,5.2-5,10.6-11.1,11.6
	c-2.8,0.5-4.2-2.4-4.9-4.1c-1.7-4-2.1-9-3.2-13.6c-0.5-2.4-0.8-4.9-3.2-5.4c-1.9-0.4-3.3,0.9-4.1,1.8c-2.1,2.7-3.4,6.4-5.5,9.3
	c-0.8,1.1-2.2,2.8-4.3,2.4c-3.8-0.7-4.5-6-5.8-9.3c-0.5-1.3-1.4-4.3-3.5-3.9c-3.8,0.7-5,8.3-6.6,11.5c-0.7,1.4-2.1,3.6-4.6,2.6
	c-4.3-1.8-1.9-12.7-6.7-13.9c-2.9-0.7-4.7,2.9-5.7,4.9c-1.8,3.9-3.8,8.4-6.2,12.1c-1.1,1.6-2.4,3.3-4.6,3.8c-2.6,0.5-3.6-2-4.3-3.6
	c-1.4-3.3-1.9-7.4-2.7-11.4c-0.5-2.5-0.3-4.9-2-6c-2.6-1.6-4.5,1.3-5.9,2.5c-3,2.4-6.3,4.2-9.7,6.2c-1,0.6-3,2-4.6,1.7
	c-1.9-0.3-3-1.8-4.3-2.8c-2.4-1.9-4.7-4-6.9-6.2c-1.2-1.2-2.8-3.5-4.8-3.4c-0.6,0.1-0.9,0.2-1.3,0.4c-1.5,1-2.2,3.1-3.2,4.7
	c-1.5,2.4-6.3,7.6-9.4,8.1c-2,0.4-3.6-1.7-4.5-2.6c-3-3-5.6-5.9-9.6-7.9c-1.4-0.8-4.4-2.1-6.4-0.9c-1.6,1-1.6,5.5-2.3,7.5
	c-1.9,5.5-4.9,11.5-9.1,14.8c-1.5,1.2-3.6,3.2-6.7,2.4c-5.2-1.3-6.3-7.6-7.6-13.2c-0.6-2.8-0.8-7.5-3-8c-1.8-0.4-2.1,1.4-2.4,2.7
	c-0.3,1.5-0.2,2.7-0.2,4.9c-0.1,0.9-0.1,1.9-0.1,2.8c-0.2,2.3-0.4,3.5-1,4.9c-1.8,4.3-8.4,8.9-15.3,7.8c-1.6-0.2-2.8-0.5-4-1
	c-3.8-1.5-6.1-4.4-6.8-9c-0.2-1.4,0.2-3,0.5-4c1.7-4.9,6.6-6.9,11.9-7c2-0.3,7.9,0.6,8.6-0.8c0.5-1.2-1.8-2.3-2.5-2.6
	c-3-1.5-8.3-2.5-12.6-1.5c-5.9,1.4-10.7,4.8-12.9,9.8c-2.8,6.5,1.2,14.2,4.9,17.2c4.7,3.8,12.4,5.7,20.2,3.4
	c3.9-1.2,6.9-3.3,11.1-4.1c1.1-0.2,2.3,0.1,3,0.3c3.9,1.2,7.5,5.8,12.7,4.2c1.7-0.5,3.2-1.4,4.6-2.3c3.5-2.5,6.3-6,8.2-10.1
	c1.1-2.6,2-5.8,3.5-8.1c0.9-1.4,2.7-2.3,4.6-1.2c0.8,0.4,1.5,1,2.1,1.6c0.6,0.5,1.3,1.1,1.7,1.9c0.5,1,0.2,2.2-0.4,2.9
	c-0.6,0.8-1.7,1.3-2.5,1.9c-1.5,1.1-3,2.4-4.1,3.9c-2.6,3.4-2.1,6.7,1.4,8.8c5.5,3.2,18.6,3.8,20.2-3.1c0.6-2.6-0.6-5.2-1.3-6.8
	c-0.4-0.9-1.2-2-0.8-3.4c0.4-1.4,1.8-2.2,2.8-3c2.3-1.9,4.5-3.8,6.8-5.6c1-0.8,2.3-0.9,3.5-0.4c1,0.4,1.8,1.1,2.6,1.7
	c0.9,0.7,3.2,2.4,2.8,4.2c-0.3,1.2-1.3,1.9-2.3,2.5c-2.4,1.7-8.9,7-5.3,11.1c0.6,0.8,1.6,1.4,2.5,1.9c1.6,1,3.6,1.6,5.7,2
	c6.4,1.4,13.4-0.3,14.7-5.3c1.2-4.8-4.9-8.6-0.2-11.7c0.8-0.4,1.7-0.9,2.5-1.3c1.1-0.5,2.4-1.4,4.1-1.1c3.1,0.6,3.3,4,4.3,6.5
	c1.6,4.1,4.3,11,8.5,12.3c2.1,0.6,4-0.6,5.1-1.5c3.3-2.5,5.5-6.3,7.9-9.7c0.8-1.1,2.6-3.9,4.7-3.4c3.6,0.6,3.9,7.9,4.9,11.3
	c0.4,1.4,1,3.1,2.4,3.4c2,0.5,3.4-2.5,4-3.8c1.6-3.6,3.7-11.7,7.4-12.8c1.7-0.5,2.9,0.6,3.5,1.6c1.9,2.9,1.4,8.6,2.6,12.2
	c0.5,1.3,1.5,3.4,3.6,3c2.4-0.5,3-3.9,3.7-6.1c1.2-3.8,2.5-8.5,6.4-9.6c2.8-0.9,3.9,1.8,4.6,3.5c1.7,4.2,2.4,10.2,6.5,11.9
	c2,0.9,4.7,0.1,6.2-0.7c3.6-1.9,5.6-5.2,10.4-6c1.3-0.2,2.5,0.4,3.3,0.8c2.3,1.2,4.1,2.8,6.3,4.1c6.2,3.6,14.6,2,19.7-1.4
	C374.1,348.2,377.3,344.5,378.8,339.7z M487.4,328.5c0.6-2.5,1.2-7.1,1-10.8c-0.3-3.5-0.6-6.4-1.2-8.4c-1-3.9-2.1-7.4-4-10.5
	c-7.5-12.8-20.5-20.3-41.5-20c-1.2,0-1.8,0.1-3.1,0.2c-2.2,0.2-3.8,0.5-5.6,0.8c-6.3,1.1-13.5,2.4-19.3,4.6c-2,0.8-4,1.3-5.7,2.3
	c-0.6,0.3-1.7,0.9-1.4,1.9c0.3,1.6,2.9,0.9,4.1,0.6c3.5-0.9,8.5-2.8,8.7,1.9c0.3,8.3,0.6,16.5,0.9,24.8c0.1,2.5,0.1,4.9,0.2,7.4
	c0.1,3.3,0.1,6.5,0.2,9.8v2.9c0.1,3.8-0.2,9.2,2.6,10.4c1.6,0.6,2.5-0.8,2.9-1.7c1-2.3,1.2-4.2,1.4-8c0.1-0.9,0.1-1.8,0.1-2.6
	c0.1-2.8,0.1-5.6,0.2-8.4c0.1-5.8,0.2-11.6,0.3-17.4c0.1-2.9,0.1-5.8,0.1-8.7V297c0-1.8,0-3.6,0-5.4c0-1.2-0.1-2.4,0.2-3.4
	c0.2-1,0.7-1.7,1.4-2.2c1.8-1.1,9.2-1.5,12.9-1.1c2.7,0.3,4.6,0.7,6.8,1.2c7.9,2,14.8,5.7,19.2,11.3c2.4,3.1,4.5,6.5,5.8,10.7
	c0.8,2.4,1.3,4.3,1.6,6.9c0.8,6.5-0.4,14.1-2,18.1c-5.1,13.1-14.8,19.2-29.7,22.5c-2.6,0.6-5.4,0.8-7.4,0.9
	c-1.1,0.1-2.1,0.1-3.2,0.1h-3.4c-1.4-0.1-2.6-0.1-4.2-0.2c-3.3-0.3-8.7-1-11.9-1.4c-1.3-0.2-3.5-0.7-4.1-0.3
	c-0.1,0.1-0.2,0.2-0.2,0.4c0.1,0.8,2.2,1.4,3.3,1.9c3.1,1.2,6.5,1.9,10.1,2.6c18.6,3.8,37.5-1.4,48-8.9
	C479.3,345.6,484.8,338.7,487.4,328.5z M599.6,303.2c-1.8,0.3-2.7,1.1-3.3,2.8c-0.7,2.6,1.7,5.4,4.3,5
	C605.5,310.1,605.3,302.9,599.6,303.2z M570.5,317.5c0,1.7,0,3.4,0,5.2c0,1.3,0,2.3,0,3.6c-0.1,3-0.2,7.2-0.9,10.2
	c-0.8,3-2.1,5.1-3.7,7.1c-1.3,1.6-3.5,3.7-6.7,3c-8.2-2-7.1-12.8-7.1-23c0-2.8-0.2-9.3,1-10.8c1.6-2,8.5-1.8,11.3-2
	c0.8-0.1,1.7,0,2.4-0.1C571.1,310.7,570.5,313.5,570.5,317.5z M621.8,348.8c0-0.1-0.1-0.2-0.2-0.3c-0.9-0.6-4.1,0.8-5.7,1.1
	c-5.3,0.9-9-3.1-10.4-6.3c-1-2.3-1.2-5.3-1.8-8.7c-0.2-1.4-0.3-3.5-0.4-5.4c-0.2-2.4-0.1-6.3-2.8-6.9c-4.1-0.8-3.5,6.3-4,10.6
	c-0.6,6.2-2.7,11.5-8,13.6c-2.8,1.1-5.8,1.2-8-0.5c-3.8-3-3.6-8.9-3.6-15.7c-0.1-3.1-0.1-6.2-0.1-9.3c0-2.6-0.6-7.8,0.5-9.5
	c1.4-2.1,6.1-0.9,8.6-2c0.7-0.3,1.7-1,1.4-2.3c-0.8-3.5-7.1-1-9.5-2.8c-3-2.3,0.9-11.3-3.2-13c-1.3-0.5-2.5,0.3-3.1,1
	c-1.3,1.7-0.9,5.3-0.9,8.2c0,1.2,0,2.3-0.3,3.1c-0.3,0.6-0.9,1.2-1.5,1.4c-1,0.4-2.2,0.4-3.6,0.4c-2.1,0.1-4.2,0.1-6.3,0.2
	c-1.3,0-2.9,0.2-4.1-0.1c-5.3-1.3,0.9-14.2-5.6-14.3c-1.4,0.2-1.9,0.8-2.4,2c-1.1,3,0.5,7.9-0.8,10.8c-1.2,3-6.4,0.9-8.4,3.8
	c-0.3,0.4-0.6,1-0.4,1.8c0.8,4.1,6.9,1.4,8.5,4.1c1.1,1.7,0.7,6.7,0.6,9.3c-0.2,8.4-0.3,14.1-3.4,19.2c-0.7,1.1-1.4,2.3-2.4,3.1
	c-0.8,0.6-1.7,1.3-2.7,1.7c-1.2,0.5-3.2,0.6-4.5,0.2c-5-1.8-5.2-10.6-5.4-17.1c-0.2-3.3,0.5-7.2-2.7-7.8c-3.6-0.6-3.9,5.3-4.6,8.2
	c-1.4,6.3-5.1,15.6-11.4,16.9c-3.9,0.8-6.1-2-6.8-4.8c-0.3-1.4-0.4-2.8-0.4-4.8c0.2-2.9,0.6-6.6,0.8-8.9c0.3-4.8-0.6-7.2-3.5-6.7
	c-2.5,0.5-2.6,3.2-3.3,6.1c-1.6,7.9-1,20.1,3.8,23.9c1,0.8,2,1.4,3.3,1.9c5.4,1.9,11-1.2,14.1-3.5c1.5-1.1,3.6-3,6.4-2.3
	c4.1,1,5.4,5,9.8,5.9c2.3,0.5,4.2-0.5,5.5-1.3c2.4-1.5,4.3-3.3,7.7-3.8c1.8-0.3,3.4,0.6,4.5,1.1c2.6,1.4,4.6,3.3,7.9,3.9
	c1.9,0.3,3.5-0.5,4.5-1.1c2.5-1.4,4.4-3.5,7.7-4.1c1.7-0.3,3.1,0.5,4.1,1.1c2.3,1.4,3.9,3.4,6.9,4.1c5.3,1.2,10.6-3.5,14-5
	c1.5-0.6,3.6-0.6,4.9,0.2c1.3,0.8,2.5,2,3.8,2.8c2.4,1.7,6.7,2.8,10.6,1.9c1.2-0.3,2.3-0.8,3.3-1.3
	C619.4,352,622.1,350.1,621.8,348.8z"/>
</svg>
